<?xml version="1.0" encoding="UTF-8" standalone="no"?><!-- Generator: Gravit.io --><svg xmlns="http://www.w3.org/2000/svg" xmlns:xlink="http://www.w3.org/1999/xlink" style="isolation:isolate" viewBox="668.96 331.66 233.04 21.6" width="233.04pt" height="21.6pt"><defs><clipPath id="_clipPath_SRIREaguWCkjAq1FzJTjNDoCAZxhEOxb"><rect x="668.96" y="331.66" width="233.04" height="21.6"/></clipPath></defs><g clip-path="url(#_clipPath_SRIREaguWCkjAq1FzJTjNDoCAZxhEOxb)"><path d=" M 685.55 331.96 L 685.55 331.96 L 691.88 331.96 L 691.88 331.96 Q 692.15 331.96 692.345 332.155 L 692.345 332.155 L 692.345 332.155 Q 692.54 332.35 692.54 332.53 L 692.54 332.53 L 692.54 332.53 Q 692.54 332.71 692.51 332.83 L 692.51 332.83 L 685.61 351.97 L 685.61 351.97 Q 685.28 352.96 684.26 352.96 L 684.26 352.96 L 677.27 352.96 L 677.27 352.96 Q 676.28 352.96 675.95 352.06 L 675.95 352.06 L 668.99 332.83 L 668.99 332.83 Q 668.96 332.71 668.96 332.53 L 668.96 332.53 L 668.96 332.53 Q 668.96 332.35 669.155 332.155 L 669.155 332.155 L 669.155 332.155 Q 669.35 331.96 669.62 331.96 L 669.62 331.96 L 675.95 331.96 L 675.95 331.96 Q 676.49 331.96 676.835 332.275 L 676.835 332.275 L 676.835 332.275 Q 677.18 332.59 677.3 332.95 L 677.3 332.95 L 680.75 344.44 L 684.2 332.95 L 684.2 332.95 Q 684.47 331.96 685.55 331.96 Z  M 700.58 352.96 L 700.58 352.96 L 694.91 352.96 L 694.91 352.96 Q 694.64 352.96 694.445 352.765 L 694.445 352.765 L 694.445 352.765 Q 694.25 352.57 694.25 352.39 L 694.25 352.39 L 694.25 352.39 Q 694.25 352.21 694.28 352.12 L 694.28 352.12 L 700.82 332.95 L 700.82 332.95 Q 701.09 331.96 702.17 331.96 L 702.17 331.96 L 710.51 331.96 L 710.51 331.96 Q 711.59 331.96 711.86 332.95 L 711.86 332.95 L 718.4 352.12 L 718.4 352.12 Q 718.43 352.21 718.43 352.39 L 718.43 352.39 L 718.43 352.39 Q 718.43 352.57 718.235 352.765 L 718.235 352.765 L 718.235 352.765 Q 718.04 352.96 717.77 352.96 L 717.77 352.96 L 712.1 352.96 L 712.1 352.96 Q 711.14 352.96 710.75 351.94 L 710.75 351.94 L 710 349.84 L 702.68 349.84 L 701.93 351.94 L 701.93 351.94 Q 701.54 352.96 700.58 352.96 Z  M 704.21 343.99 L 708.47 343.99 L 706.34 337.75 L 704.21 343.99 L 704.21 343.99 Z  M 728.99 340.06 L 728.99 340.06 L 728.99 344.86 L 728.99 344.86 Q 728.99 346.09 729.815 346.75 L 729.815 346.75 L 729.815 346.75 Q 730.64 347.41 731.975 347.41 L 731.975 347.41 L 731.975 347.41 Q 733.31 347.41 733.91 346.99 L 733.91 346.99 L 733.91 346.99 Q 734.51 346.57 734.915 345.76 L 734.915 345.76 L 734.915 345.76 Q 735.32 344.95 735.98 344.95 L 735.98 344.95 L 742.46 344.95 L 742.46 344.95 Q 742.73 344.95 742.925 345.145 L 742.925 345.145 L 742.925 345.145 Q 743.12 345.34 743.12 345.61 L 743.12 345.61 L 743.12 345.61 Q 743.12 348.4 740.48 350.71 L 740.48 350.71 L 740.48 350.71 Q 739.16 351.85 736.97 352.555 L 736.97 352.555 L 736.97 352.555 Q 734.78 353.26 731.81 353.26 L 731.81 353.26 L 731.81 353.26 Q 728.84 353.26 726.395 352.345 L 726.395 352.345 L 726.395 352.345 Q 723.95 351.43 722.42 349.345 L 722.42 349.345 L 722.42 349.345 Q 720.89 347.26 720.89 344.23 L 720.89 344.23 L 720.89 340.69 L 720.89 340.69 Q 720.89 337.66 722.42 335.56 L 722.42 335.56 L 722.42 335.56 Q 725.3 331.66 732.05 331.66 L 732.05 331.66 L 732.05 331.66 Q 734.78 331.66 736.97 332.365 L 736.97 332.365 L 736.97 332.365 Q 739.16 333.07 740.48 334.21 L 740.48 334.21 L 740.48 334.21 Q 743.12 336.52 743.12 339.31 L 743.12 339.31 L 743.12 339.31 Q 743.12 339.58 742.925 339.775 L 742.925 339.775 L 742.925 339.775 Q 742.73 339.97 742.46 339.97 L 742.46 339.97 L 735.98 339.97 L 735.98 339.97 Q 735.32 339.97 734.915 339.16 L 734.915 339.16 L 734.915 339.16 Q 734.51 338.35 733.91 337.93 L 733.91 337.93 L 733.91 337.93 Q 733.31 337.51 731.975 337.51 L 731.975 337.51 L 731.975 337.51 Q 730.64 337.51 729.815 338.17 L 729.815 338.17 L 729.815 338.17 Q 728.99 338.83 728.99 340.06 Z  M 746.9 331.96 L 746.9 331.96 L 767.6 331.96 L 767.6 331.96 Q 767.93 331.96 768.17 332.2 L 768.17 332.2 L 768.17 332.2 Q 768.41 332.44 768.41 332.77 L 768.41 332.77 L 768.41 337.6 L 768.41 337.6 Q 768.41 337.93 768.17 338.17 L 768.17 338.17 L 768.17 338.17 Q 767.93 338.41 767.6 338.41 L 767.6 338.41 L 761.15 338.41 L 761.15 352.15 L 761.15 352.15 Q 761.15 352.48 760.91 352.72 L 760.91 352.72 L 760.91 352.72 Q 760.67 352.96 760.34 352.96 L 760.34 352.96 L 754.16 352.96 L 754.16 352.96 Q 753.83 352.96 753.59 352.72 L 753.59 352.72 L 753.59 352.72 Q 753.35 352.48 753.35 352.15 L 753.35 352.15 L 753.35 338.41 L 746.9 338.41 L 746.9 338.41 Q 746.57 338.41 746.33 338.17 L 746.33 338.17 L 746.33 338.17 Q 746.09 337.93 746.09 337.6 L 746.09 337.6 L 746.09 332.77 L 746.09 332.77 Q 746.09 332.44 746.33 332.2 L 746.33 332.2 L 746.33 332.2 Q 746.57 331.96 746.9 331.96 Z  M 790.97 345.13 L 794.66 352.03 L 794.66 352.03 Q 794.72 352.15 794.72 352.36 L 794.72 352.36 L 794.72 352.36 Q 794.72 352.57 794.525 352.765 L 794.525 352.765 L 794.525 352.765 Q 794.33 352.96 794.06 352.96 L 794.06 352.96 L 787.25 352.96 L 787.25 352.96 Q 786.35 352.96 785.99 352.21 L 785.99 352.21 L 783.35 346.27 L 780.83 346.27 L 780.83 352.15 L 780.83 352.15 Q 780.83 352.48 780.59 352.72 L 780.59 352.72 L 780.59 352.72 Q 780.35 352.96 780.02 352.96 L 780.02 352.96 L 773.54 352.96 L 773.54 352.96 Q 773.21 352.96 772.97 352.72 L 772.97 352.72 L 772.97 352.72 Q 772.73 352.48 772.73 352.15 L 772.73 352.15 L 772.73 332.77 L 772.73 332.77 Q 772.73 332.44 772.97 332.2 L 772.97 332.2 L 772.97 332.2 Q 773.21 331.96 773.54 331.96 L 773.54 331.96 L 785.21 331.96 L 785.21 331.96 Q 789.32 331.96 791.72 333.91 L 791.72 333.91 L 791.72 333.91 Q 794.12 335.86 794.12 339.22 L 794.12 339.22 L 794.12 339.22 Q 794.12 343.3 790.97 345.13 L 790.97 345.13 L 790.97 345.13 Z  M 784.58 337.54 L 780.83 337.54 L 780.83 340.72 L 784.58 340.72 L 784.58 340.72 Q 785.24 340.72 785.6 340.285 L 785.6 340.285 L 785.6 340.285 Q 785.96 339.85 785.96 339.19 L 785.96 339.19 L 785.96 339.19 Q 785.96 338.53 785.615 338.035 L 785.615 338.035 L 785.615 338.035 Q 785.27 337.54 784.58 337.54 L 784.58 337.54 L 784.58 337.54 Z  M 802.58 352.96 L 802.58 352.96 L 796.91 352.96 L 796.91 352.96 Q 796.64 352.96 796.445 352.765 L 796.445 352.765 L 796.445 352.765 Q 796.25 352.57 796.25 352.39 L 796.25 352.39 L 796.25 352.39 Q 796.25 352.21 796.28 352.12 L 796.28 352.12 L 802.82 332.95 L 802.82 332.95 Q 803.09 331.96 804.17 331.96 L 804.17 331.96 L 812.51 331.96 L 812.51 331.96 Q 813.59 331.96 813.86 332.95 L 813.86 332.95 L 820.4 352.12 L 820.4 352.12 Q 820.43 352.21 820.43 352.39 L 820.43 352.39 L 820.43 352.39 Q 820.43 352.57 820.235 352.765 L 820.235 352.765 L 820.235 352.765 Q 820.04 352.96 819.77 352.96 L 819.77 352.96 L 814.1 352.96 L 814.1 352.96 Q 813.14 352.96 812.75 351.94 L 812.75 351.94 L 812 349.84 L 804.68 349.84 L 803.93 351.94 L 803.93 351.94 Q 803.54 352.96 802.58 352.96 Z  M 806.21 343.99 L 810.47 343.99 L 808.34 337.75 L 806.21 343.99 L 806.21 343.99 Z  M 830.99 340.06 L 830.99 340.06 L 830.99 344.86 L 830.99 344.86 Q 830.99 346.09 831.815 346.75 L 831.815 346.75 L 831.815 346.75 Q 832.64 347.41 833.975 347.41 L 833.975 347.41 L 833.975 347.41 Q 835.31 347.41 835.91 346.99 L 835.91 346.99 L 835.91 346.99 Q 836.51 346.57 836.915 345.76 L 836.915 345.76 L 836.915 345.76 Q 837.32 344.95 837.98 344.95 L 837.98 344.95 L 844.46 344.95 L 844.46 344.95 Q 844.73 344.95 844.925 345.145 L 844.925 345.145 L 844.925 345.145 Q 845.12 345.34 845.12 345.61 L 845.12 345.61 L 845.12 345.61 Q 845.12 348.4 842.48 350.71 L 842.48 350.71 L 842.48 350.71 Q 841.16 351.85 838.97 352.555 L 838.97 352.555 L 838.97 352.555 Q 836.78 353.26 833.81 353.26 L 833.81 353.26 L 833.81 353.26 Q 830.84 353.26 828.395 352.345 L 828.395 352.345 L 828.395 352.345 Q 825.95 351.43 824.42 349.345 L 824.42 349.345 L 824.42 349.345 Q 822.89 347.26 822.89 344.23 L 822.89 344.23 L 822.89 340.69 L 822.89 340.69 Q 822.89 337.66 824.42 335.56 L 824.42 335.56 L 824.42 335.56 Q 827.3 331.66 834.05 331.66 L 834.05 331.66 L 834.05 331.66 Q 836.78 331.66 838.97 332.365 L 838.97 332.365 L 838.97 332.365 Q 841.16 333.07 842.48 334.21 L 842.48 334.21 L 842.48 334.21 Q 845.12 336.52 845.12 339.31 L 845.12 339.31 L 845.12 339.31 Q 845.12 339.58 844.925 339.775 L 844.925 339.775 L 844.925 339.775 Q 844.73 339.97 844.46 339.97 L 844.46 339.97 L 837.98 339.97 L 837.98 339.97 Q 837.32 339.97 836.915 339.16 L 836.915 339.16 L 836.915 339.16 Q 836.51 338.35 835.91 337.93 L 835.91 337.93 L 835.91 337.93 Q 835.31 337.51 833.975 337.51 L 833.975 337.51 L 833.975 337.51 Q 832.64 337.51 831.815 338.17 L 831.815 338.17 L 831.815 338.17 Q 830.99 338.83 830.99 340.06 Z  M 863.54 341.71 L 871.64 351.91 L 871.64 351.91 Q 871.76 352.09 871.76 352.33 L 871.76 352.33 L 871.76 352.33 Q 871.76 352.57 871.565 352.765 L 871.565 352.765 L 871.565 352.765 Q 871.37 352.96 871.1 352.96 L 871.1 352.96 L 863.36 352.96 L 863.36 352.96 Q 862.67 352.96 862.28 352.48 L 862.28 352.48 L 857.06 346.03 L 857.06 352.15 L 857.06 352.15 Q 857.06 352.48 856.82 352.72 L 856.82 352.72 L 856.82 352.72 Q 856.58 352.96 856.25 352.96 L 856.25 352.96 L 850.07 352.96 L 850.07 352.96 Q 849.74 352.96 849.5 352.72 L 849.5 352.72 L 849.5 352.72 Q 849.26 352.48 849.26 352.15 L 849.26 352.15 L 849.26 332.77 L 849.26 332.77 Q 849.26 332.44 849.5 332.2 L 849.5 332.2 L 849.5 332.2 Q 849.74 331.96 850.07 331.96 L 850.07 331.96 L 856.25 331.96 L 856.25 331.96 Q 856.58 331.96 856.82 332.2 L 856.82 332.2 L 856.82 332.2 Q 857.06 332.44 857.06 332.77 L 857.06 332.77 L 857.06 338.41 L 861.8 332.47 L 861.8 332.47 Q 862.25 331.96 862.91 331.96 L 862.91 331.96 L 870.14 331.96 L 870.14 331.96 Q 870.41 331.96 870.605 332.155 L 870.605 332.155 L 870.605 332.155 Q 870.8 332.35 870.8 332.605 L 870.8 332.605 L 870.8 332.605 Q 870.8 332.86 870.65 333.04 L 870.65 333.04 L 863.54 341.71 L 863.54 341.71 Z " fill="rgb(12,28,68)"/><g><polygon points="883.527,346.263,887.034,349.271,882.676,350.804" fill="rgb(12,28,68)"/><polygon points="885.241,346.505,887.746,350.387,883.132,350.616" fill="rgb(12,28,68)"/><rect x="896.999" y="334.07" width="2.488" height="3.374" transform="matrix(0.707,-0.707,0.707,0.707,25.674,733.495)" fill="rgb(12,28,68)"/><path d="M 881.275 351.531 L 882.711 350.095 C 883.062 349.744 883.614 349.727 883.944 350.056 L 883.944 350.056 C 884.273 350.386 884.256 350.938 883.905 351.289 L 882.469 352.725 C 882.118 353.076 881.566 353.093 881.236 352.764 L 881.236 352.764 C 880.907 352.434 880.924 351.882 881.275 351.531 Z" style="stroke:none;fill:#0C1C44;stroke-miterlimit:10;"/><path d="M 891.949 334.459 L 891.949 334.459 C 892.298 334.11 892.87 334.114 893.225 334.469 L 899.271 340.507 C 899.626 340.861 899.63 341.433 899.281 341.781 L 899.281 341.781 C 898.932 342.13 898.36 342.126 898.005 341.771 L 891.959 335.733 C 891.604 335.379 891.6 334.807 891.949 334.459 Z" style="stroke:none;fill:#0C1C44;stroke-miterlimit:10;"/><path d=" M 892.761 337.813 C 892.539 337.665 892.214 337.708 891.992 337.93 L 888.535 341.387 C 888.516 341.403 888.497 341.419 888.48 341.437 L 888.48 341.437 C 888.463 341.454 888.446 341.472 888.431 341.491 L 888.431 341.491 L 884.032 345.889 L 884.032 345.889 C 883.785 346.137 883.76 346.514 883.977 346.73 L 883.977 346.73 C 884.194 346.947 884.57 346.922 884.818 346.675 L 886.362 345.13 L 886.362 345.13 L 886.848 345.616 C 887.108 345.876 887.531 345.876 887.791 345.616 L 887.839 345.568 C 888.099 345.308 888.099 344.885 887.839 344.625 L 887.353 344.139 L 888.742 342.75 L 889.44 343.449 C 889.747 343.755 890.231 343.769 890.522 343.478 L 890.522 343.478 C 890.812 343.188 890.799 342.703 890.492 342.397 L 889.794 341.699 L 892.179 339.313 L 894.257 341.391 C 894.587 341.721 895.11 341.736 895.423 341.423 L 895.423 341.423 C 895.736 341.11 895.721 340.587 895.391 340.257 L 893.188 338.054 C 893.065 337.931 892.916 337.852 892.761 337.813 Z  M 882.799 345.661 L 892.558 335.903 L 897.858 341.203 L 888.099 350.961 L 882.799 345.661 L 882.799 345.661 L 882.799 345.661 L 882.799 345.661 Z " fill-rule="evenodd" fill="rgb(12,28,68)"/><path d="M 897.292 332.491 L 897.581 332.202 C 897.851 331.933 898.288 331.933 898.557 332.202 L 901.798 335.443 C 902.067 335.712 902.067 336.149 901.798 336.419 L 901.509 336.708 C 901.239 336.977 900.802 336.977 900.533 336.708 L 897.292 333.467 C 897.023 333.198 897.023 332.761 897.292 332.491 Z" style="stroke:none;fill:#0C1C44;stroke-miterlimit:10;"/><path d=" M 883.087 345.42 L 883.643 345.42 L 883.643 350.717 L 882.799 350.717 L 882.799 345.707 L 883.087 345.42 Z " fill-rule="evenodd" fill="rgb(12,28,68)"/><path d=" M 888.525 350.525 L 888.525 350.121 L 883.228 350.115 L 883.228 350.958 L 888.086 350.964 L 888.525 350.525 Z " fill-rule="evenodd" fill="rgb(12,28,68)"/></g></g></svg>